<svg xmlns="http://www.w3.org/2000/svg" viewBox="0 0 1920 1080" width="1920" height="1080">
  <defs>
    <style>
      text { font-family: 'Inter', 'Segoe UI', Arial, sans-serif; }
    </style>
    <marker id="arrow-gray" markerWidth="12" markerHeight="8" refX="11" refY="4" orient="auto">
      <polygon points="0 0, 12 4, 0 8" fill="#9CA3AF"/>
    </marker>
    <marker id="arrow-blue" markerWidth="12" markerHeight="8" refX="11" refY="4" orient="auto">
      <polygon points="0 0, 12 4, 0 8" fill="#0B64DD"/>
    </marker>
    <marker id="arrow-darkblue" markerWidth="12" markerHeight="8" refX="11" refY="4" orient="auto">
      <polygon points="0 0, 12 4, 0 8" fill="#153385"/>
    </marker>
    <filter id="shadow" x="-3%" y="-3%" width="106%" height="112%">
      <feDropShadow dx="0" dy="3" stdDeviation="6" flood-color="#000" flood-opacity="0.1"/>
    </filter>
    <filter id="glow" x="-5%" y="-5%" width="110%" height="115%">
      <feDropShadow dx="0" dy="3" stdDeviation="10" flood-color="#0B64DD" flood-opacity="0.18"/>
    </filter>
  </defs>

  <!-- Background -->
  <rect width="1920" height="1080" fill="#FFFFFF"/>

  <!-- Title -->
  <text x="960" y="52" text-anchor="middle" font-size="30" font-weight="700" fill="#000000">MDH &amp; OIG Fraud Investigation — Proposed Architecture</text>
  <text x="960" y="78" text-anchor="middle" font-size="14" fill="#535966" font-weight="400">Elastic as Unified Data, Query &amp; Intelligence Layer</text>

  <!-- ======================================== -->
  <!-- COLUMN 1: RAW DATA SOURCES (x: 60-320)  -->
  <!-- ======================================== -->
  <text x="190" y="135" text-anchor="middle" font-size="12" font-weight="600" fill="#535966" letter-spacing="1.5">RAW DATA SOURCES</text>

  <!-- Medical Practice Documents -->
  <rect x="60" y="160" width="260" height="90" rx="0" fill="#FFFFFF" stroke="#BCBCBC" stroke-width="2" stroke-dasharray="7,4" filter="url(#shadow)"/>
  <rect x="80" y="180" width="32" height="40" rx="3" fill="#F3F4F6" stroke="#D1D5DB" stroke-width="1"/>
  <text x="96" y="195" text-anchor="middle" font-size="8" fill="#9CA3AF" font-weight="600">PDF</text>
  <line x1="87" y1="204" x2="105" y2="204" stroke="#D1D5DB" stroke-width="1"/>
  <line x1="87" y1="210" x2="102" y2="210" stroke="#D1D5DB" stroke-width="1"/>
  <text x="125" y="195" font-size="14" font-weight="700" fill="#000">Medical Practice Docs</text>
  <text x="125" y="213" font-size="11" fill="#535966">EHR/Clinical Notes, Invoices</text>
  <text x="125" y="228" font-size="11" fill="#535966">Shipping Logs, Prescriber Orders</text>

  <!-- MMIS -->
  <rect x="60" y="275" width="260" height="75" rx="0" fill="#FFFFFF" stroke="#BCBCBC" stroke-width="2" stroke-dasharray="7,4" filter="url(#shadow)"/>
  <rect x="80" y="293" width="32" height="32" rx="4" fill="#E8F0FE" stroke="#93C5FD" stroke-width="1"/>
  <text x="96" y="313" text-anchor="middle" font-size="13" fill="#3B82F6" font-weight="700">M</text>
  <text x="125" y="308" font-size="14" font-weight="700" fill="#000">MMIS</text>
  <text x="125" y="326" font-size="11" fill="#535966">Medicaid Claims &amp; Recipient Data</text>

  <!-- JSURS / IBM -->
  <rect x="60" y="375" width="260" height="75" rx="0" fill="#FFFFFF" stroke="#BCBCBC" stroke-width="2" stroke-dasharray="7,4" filter="url(#shadow)"/>
  <rect x="80" y="393" width="32" height="32" rx="4" fill="#E8F0FE" stroke="#93C5FD" stroke-width="1"/>
  <text x="96" y="413" text-anchor="middle" font-size="13" fill="#3B82F6" font-weight="700">J</text>
  <text x="125" y="408" font-size="14" font-weight="700" fill="#000">JSURS / IBM</text>
  <text x="125" y="426" font-size="11" fill="#535966">Reporting &amp; Historical Data</text>

  <!-- Cognito Forms -->
  <rect x="60" y="475" width="260" height="75" rx="0" fill="#FFFFFF" stroke="#BCBCBC" stroke-width="2" stroke-dasharray="7,4" filter="url(#shadow)"/>
  <rect x="80" y="493" width="32" height="32" rx="4" fill="#F3F4F6" stroke="#D1D5DB" stroke-width="1"/>
  <text x="96" y="513" text-anchor="middle" font-size="13" fill="#6B7280" font-weight="700">C</text>
  <text x="125" y="508" font-size="14" font-weight="700" fill="#000">Cognito Forms</text>
  <text x="125" y="526" font-size="11" fill="#535966">Complaints &amp; Provider Uploads</text>

  <!-- CLEAR Reports -->
  <rect x="60" y="575" width="260" height="75" rx="0" fill="#FFFFFF" stroke="#BCBCBC" stroke-width="2" stroke-dasharray="7,4" filter="url(#shadow)"/>
  <rect x="80" y="593" width="32" height="32" rx="4" fill="#F3F4F6" stroke="#D1D5DB" stroke-width="1"/>
  <text x="96" y="613" text-anchor="middle" font-size="13" fill="#6B7280" font-weight="700">C</text>
  <text x="125" y="608" font-size="14" font-weight="700" fill="#000">CLEAR Reports</text>
  <text x="125" y="626" font-size="11" fill="#535966">Contact Enrichment Data</text>

  <!-- ======================================== -->
  <!-- COLUMN 2: AWS OCR + INGEST (x: 420-720) -->
  <!-- ======================================== -->
  <text x="570" y="135" text-anchor="middle" font-size="12" font-weight="600" fill="#535966" letter-spacing="1.5">OCR &amp; INGESTION</text>

  <!-- AWS Textract -->
  <rect x="420" y="160" width="300" height="165" rx="0" fill="#FFFFFF" stroke="#FF9900" stroke-width="2.5" filter="url(#shadow)"/>
  <rect x="420" y="160" width="300" height="42" fill="#FF9900"/>
  <text x="570" y="187" text-anchor="middle" font-size="16" font-weight="700" fill="#FFFFFF">Amazon Textract</text>
  <text x="445" y="228" font-size="13" fill="#333" font-weight="600">OCR &amp; Document Intelligence</text>
  <text x="445" y="250" font-size="12" fill="#535966">PDF text extraction</text>
  <text x="445" y="268" font-size="12" fill="#535966">Table &amp; form detection</text>
  <text x="445" y="286" font-size="12" fill="#535966">Structured JSON output</text>
  <text x="445" y="304" font-size="12" fill="#535966">Handwriting recognition</text>

  <!-- Elastic Ingest Pipeline -->
  <rect x="420" y="365" width="300" height="285" rx="8" fill="#FFFFFF" stroke="#0B64DD" stroke-width="2.5" filter="url(#shadow)"/>
  <rect x="420" y="365" width="300" height="42" rx="8" ry="0" fill="#0B64DD"/>
  <text x="570" y="392" text-anchor="middle" font-size="16" font-weight="700" fill="#FFFFFF">Elastic Ingest Pipelines</text>

  <text x="445" y="432" font-size="13" fill="#0B64DD" font-weight="700">Claims Pipeline</text>
  <text x="445" y="450" font-size="11" fill="#535966">Reversal netting &amp; zero-out logic</text>

  <line x1="445" y1="462" x2="695" y2="462" stroke="#E5E7EB" stroke-width="1"/>

  <text x="445" y="482" font-size="13" fill="#0B64DD" font-weight="700">Document Pipeline</text>
  <text x="445" y="500" font-size="11" fill="#535966">OCR text parsing &amp; field extraction</text>

  <line x1="445" y1="512" x2="695" y2="512" stroke="#E5E7EB" stroke-width="1"/>

  <text x="445" y="532" font-size="13" fill="#0B64DD" font-weight="700">Enrich Processors</text>
  <text x="445" y="550" font-size="11" fill="#535966">CLEAR cross-ref, DME 3-way match,</text>
  <text x="445" y="564" font-size="11" fill="#535966">procedure code &amp; unit conversion</text>

  <line x1="445" y1="572" x2="695" y2="572" stroke="#E5E7EB" stroke-width="1"/>

  <text x="445" y="582" font-size="13" fill="#0B64DD" font-weight="700">Complaint Pipeline</text>
  <text x="445" y="600" font-size="11" fill="#535966">Form mapping &amp; case creation</text>

  <!-- ======================================== -->
  <!-- ARROWS: Sources -> OCR / Ingest         -->
  <!-- ======================================== -->
  <!-- Medical Docs -> Textract -->
  <line x1="320" y1="205" x2="418" y2="205" stroke="#9CA3AF" stroke-width="2.5" marker-end="url(#arrow-gray)"/>

  <!-- MMIS -> Ingest -->
  <line x1="320" y1="312" x2="350" y2="312" stroke="#9CA3AF" stroke-width="2.5"/>
  <path d="M 350 312 L 350 430 L 418 430" fill="none" stroke="#9CA3AF" stroke-width="2.5" marker-end="url(#arrow-gray)"/>

  <!-- JSURS -> Ingest -->
  <line x1="320" y1="412" x2="350" y2="412" stroke="#9CA3AF" stroke-width="2.5"/>
  <path d="M 350 412 L 350 480 L 418 480" fill="none" stroke="#9CA3AF" stroke-width="2.5" marker-end="url(#arrow-gray)"/>

  <!-- Cognito -> Ingest -->
  <line x1="320" y1="512" x2="350" y2="512" stroke="#9CA3AF" stroke-width="2.5"/>
  <path d="M 350 512 L 350 530 L 418 530" fill="none" stroke="#9CA3AF" stroke-width="2.5" marker-end="url(#arrow-gray)"/>

  <!-- CLEAR -> Ingest -->
  <line x1="320" y1="612" x2="350" y2="612" stroke="#9CA3AF" stroke-width="2.5"/>
  <path d="M 350 612 L 350 580 L 418 580" fill="none" stroke="#9CA3AF" stroke-width="2.5" marker-end="url(#arrow-gray)"/>

  <!-- API labels on source arrows -->
  <rect x="330" y="408" width="35" height="16" rx="3" fill="#E5E7EB"/>
  <text x="347" y="420" text-anchor="middle" font-size="8" fill="#6B7280" font-weight="700">API</text>

  <rect x="330" y="458" width="35" height="16" rx="3" fill="#E5E7EB"/>
  <text x="347" y="470" text-anchor="middle" font-size="8" fill="#6B7280" font-weight="700">API</text>

  <rect x="330" y="510" width="35" height="16" rx="3" fill="#E5E7EB"/>
  <text x="347" y="522" text-anchor="middle" font-size="8" fill="#6B7280" font-weight="700">API</text>

  <!-- Textract -> Ingest -->
  <line x1="570" y1="325" x2="570" y2="363" stroke="#0B64DD" stroke-width="2.5" marker-end="url(#arrow-blue)"/>
  <rect x="578" y="335" width="35" height="16" rx="3" fill="#0B64DD"/>
  <text x="595" y="347" text-anchor="middle" font-size="8" fill="#FFFFFF" font-weight="700">API</text>

  <!-- ======================================== -->
  <!-- COLUMN 3: ELASTICSEARCH (x: 800-1180)   -->
  <!-- ======================================== -->
  <text x="990" y="135" text-anchor="middle" font-size="12" font-weight="600" fill="#535966" letter-spacing="1.5">SEARCH &amp; ANALYTICS ENGINE</text>

  <!-- Main ES box -->
  <rect x="800" y="160" width="380" height="560" rx="14" fill="#F0F5FF" stroke="#0B64DD" stroke-width="3" filter="url(#glow)"/>

  <!-- ES Header -->
  <rect x="800" y="160" width="380" height="55" rx="14" ry="14" fill="#0B64DD"/>
  <rect x="800" y="195" width="380" height="20" fill="#0B64DD"/>
  <text x="990" y="195" text-anchor="middle" font-size="22" fill="#FFFFFF" font-weight="700">Elasticsearch</text>

  <!-- Anomaly Detection Jobs -->
  <rect x="825" y="235" width="330" height="115" rx="8" fill="#FFFFFF" stroke="#0B64DD" stroke-width="1.5"/>
  <rect x="825" y="235" width="330" height="30" rx="8" ry="0" fill="#0B64DD" opacity="0.12"/>
  <text x="990" y="256" text-anchor="middle" font-size="13" fill="#0B64DD" font-weight="700">Anomaly Detection Jobs</text>
  <text x="845" y="280" font-size="11" fill="#333">Claims billing pattern anomalies</text>
  <text x="845" y="296" font-size="11" fill="#333">Provider concurrency detection (overlapping slots)</text>
  <text x="845" y="312" font-size="11" fill="#333">Clone / GenAI note identification</text>
  <text x="845" y="328" font-size="11" fill="#333">Auto-validate services via EHR-to-claims matching</text>
  <text x="845" y="340" font-size="9" fill="#0B64DD" font-style="italic">Eliminates need for ~100 manual verification calls</text>

  <!-- Doc Review & Evidence Management -->
  <rect x="825" y="365" width="330" height="85" rx="8" fill="#FFFFFF" stroke="#0B64DD" stroke-width="1.5"/>
  <rect x="825" y="365" width="330" height="30" rx="8" ry="0" fill="#0B64DD" opacity="0.12"/>
  <text x="990" y="386" text-anchor="middle" font-size="13" fill="#0B64DD" font-weight="700">Documentation Review &amp; Evidence Mgmt</text>
  <text x="845" y="410" font-size="11" fill="#333">Searchable document index (replaces network folders)</text>
  <text x="845" y="426" font-size="11" fill="#333">Automated checklist: time, date, signature, quals</text>
  <text x="845" y="442" font-size="11" fill="#333">EHR-to-claims cross-validation via semantic search</text>

  <!-- Rules & Alerts -->
  <rect x="825" y="465" width="330" height="80" rx="8" fill="#FFFFFF" stroke="#153385" stroke-width="1.5"/>
  <rect x="825" y="465" width="330" height="30" rx="8" ry="0" fill="#153385" opacity="0.15"/>
  <text x="990" y="486" text-anchor="middle" font-size="13" fill="#153385" font-weight="700">Rules &amp; Alerts</text>
  <text x="845" y="510" font-size="11" fill="#333">Threshold rules — billing caps, overages</text>
  <text x="845" y="526" font-size="11" fill="#333">Custom query rules — duplicates, concurrency</text>
  <text x="845" y="542" font-size="11" fill="#333">ES|QL rules — complex multi-condition logic</text>

  <!-- Search & Query -->
  <rect x="825" y="560" width="330" height="55" rx="8" fill="#FFFFFF" stroke="#0B64DD" stroke-width="1"/>
  <text x="990" y="581" text-anchor="middle" font-size="12" fill="#0B64DD" font-weight="700">Search &amp; Query</text>
  <rect x="845" y="590" width="70" height="18" rx="5" fill="#0B64DD"/>
  <text x="880" y="603" text-anchor="middle" font-size="9" fill="#FFFFFF" font-weight="600">ES|QL</text>
  <rect x="925" y="590" width="80" height="18" rx="5" fill="#0B64DD"/>
  <text x="965" y="603" text-anchor="middle" font-size="9" fill="#FFFFFF" font-weight="600">Full-Text</text>
  <rect x="1015" y="590" width="70" height="18" rx="5" fill="#0B64DD"/>
  <text x="1050" y="603" text-anchor="middle" font-size="9" fill="#FFFFFF" font-weight="600">Vector</text>
  <rect x="1095" y="590" width="50" height="18" rx="5" fill="#153385"/>
  <text x="1120" y="603" text-anchor="middle" font-size="9" fill="#FFFFFF" font-weight="600">API</text>

  <!-- Connectors row -->
  <rect x="825" y="630" width="330" height="35" rx="6" fill="#FFFFFF" stroke="#0B64DD" stroke-width="1"/>
  <text x="848" y="652" font-size="10" fill="#0B64DD" font-weight="600">CONNECTORS:</text>
  <rect x="940" y="638" width="45" height="20" rx="4" fill="#E8F0FE"/>
  <text x="962" y="652" text-anchor="middle" font-size="9" fill="#3B82F6" font-weight="600">Email</text>
  <rect x="992" y="638" width="45" height="20" rx="4" fill="#E8F0FE"/>
  <text x="1014" y="652" text-anchor="middle" font-size="9" fill="#3B82F6" font-weight="600">Slack</text>
  <rect x="1044" y="638" width="55" height="20" rx="4" fill="#E8F0FE"/>
  <text x="1071" y="652" text-anchor="middle" font-size="9" fill="#3B82F6" font-weight="600">Webhook</text>
  <rect x="1106" y="638" width="44" height="20" rx="4" fill="#E8F0FE"/>
  <text x="1128" y="652" text-anchor="middle" font-size="9" fill="#3B82F6" font-weight="600">PICTS</text>

  <!-- Kibana row -->
  <rect x="825" y="680" width="330" height="30" rx="6" fill="#0B64DD" opacity="0.08" stroke="#0B64DD" stroke-width="1"/>
  <text x="990" y="700" text-anchor="middle" font-size="12" fill="#0B64DD" font-weight="700">Kibana — Dashboards, Discover, Canvas, Lens, Maps</text>

  <!-- Use Case Badges -->
  <rect x="825" y="222" width="160" height="16" rx="4" fill="#FEF3C7" stroke="#F59E0B" stroke-width="1"/>
  <text x="905" y="233" text-anchor="middle" font-size="8" fill="#92400E" font-weight="700">BEHAVIORAL HEALTH</text>
  <rect x="995" y="222" width="160" height="16" rx="4" fill="#DBEAFE" stroke="#3B82F6" stroke-width="1"/>
  <text x="1075" y="233" text-anchor="middle" font-size="8" fill="#1E40AF" font-weight="700">DURABLE MEDICAL EQUIPMENT</text>

  <!-- ======================================== -->
  <!-- ARROW: Ingest -> ES                     -->
  <!-- ======================================== -->
  <line x1="720" y1="430" x2="798" y2="430" stroke="#0B64DD" stroke-width="3" marker-end="url(#arrow-blue)"/>
  <rect x="740" y="434" width="35" height="16" rx="3" fill="#0B64DD"/>
  <text x="757" y="446" text-anchor="middle" font-size="8" fill="#FFFFFF" font-weight="700">API</text>

  <!-- ======================================== -->
  <!-- COLUMN 4: AGENT BUILDER + WORKFLOWS     -->
  <!-- (x: 1260-1860)                          -->
  <!-- ======================================== -->
  <text x="1560" y="135" text-anchor="middle" font-size="12" font-weight="600" fill="#535966" letter-spacing="1.5">INTELLIGENCE &amp; ACTION</text>

  <!-- Arrow: ES -> Right side -->
  <line x1="1180" y1="350" x2="1258" y2="350" stroke="#0B64DD" stroke-width="3" marker-end="url(#arrow-blue)"/>


  <!-- Agent Builder -->
  <rect x="1260" y="160" width="600" height="230" rx="10" fill="#FFFFFF" stroke="#0B64DD" stroke-width="2.5" filter="url(#shadow)"/>
  <rect x="1260" y="160" width="600" height="50" rx="10" ry="10" fill="#0B64DD"/>
  <rect x="1260" y="195" width="600" height="15" fill="#0B64DD"/>
  <!-- AI icon -->
  <circle cx="1310" cy="185" r="15" fill="#FFFFFF" opacity="0.25"/>
  <text x="1310" y="191" text-anchor="middle" font-size="14" fill="#FFFFFF" font-weight="700">AI</text>
  <text x="1560" y="192" text-anchor="middle" font-size="20" font-weight="700" fill="#FFFFFF">Elastic Agent Builder</text>

  <text x="1290" y="240" font-size="15" fill="#0B64DD" font-weight="700">Conversational Investigation Agent</text>

  <text x="1290" y="268" font-size="13" fill="#333">Natural language queries across all case data</text>
  <text x="1290" y="288" font-size="13" fill="#333">Auto-verify services rendered via doc cross-reference</text>
  <text x="1290" y="308" font-size="13" fill="#333">Document comparison &amp; similarity analysis</text>
  <text x="1290" y="328" font-size="13" fill="#333">Investigator copilot — summarize &amp; suggest next steps</text>
  <text x="1290" y="348" font-size="13" fill="#333">Automated case triage &amp; prioritization</text>

  <!-- Example query bubble -->
  <rect x="1290" y="360" width="350" height="26" rx="13" fill="#F0F5FF" stroke="#0B64DD" stroke-width="1"/>
  <text x="1305" y="378" font-size="11" fill="#0B64DD" font-style="italic">"Show me providers billing overlapping time slots"</text>

  <!-- Workflows -->
  <rect x="1260" y="420" width="600" height="270" rx="10" fill="#FFFFFF" stroke="#0B64DD" stroke-width="2.5" filter="url(#shadow)"/>
  <rect x="1260" y="420" width="600" height="50" rx="10" ry="10" fill="#153385"/>
  <rect x="1260" y="455" width="600" height="15" fill="#153385"/>
  <!-- Gear icon -->
  <text x="1310" y="452" text-anchor="middle" font-size="20" fill="#FFFFFF">&#x2699;</text>
  <text x="1560" y="452" text-anchor="middle" font-size="20" font-weight="700" fill="#FFFFFF">Workflows</text>

  <text x="1290" y="500" font-size="15" fill="#153385" font-weight="700">Case Lifecycle Orchestration</text>

  <!-- Workflow pipeline -->
  <rect x="1290" y="515" width="105" height="36" rx="6" fill="#E8F0FE" stroke="#0B64DD" stroke-width="1.5"/>
  <text x="1342" y="538" text-anchor="middle" font-size="12" fill="#0B64DD" font-weight="700">Intake</text>
  <line x1="1395" y1="533" x2="1418" y2="533" stroke="#0B64DD" stroke-width="2" marker-end="url(#arrow-blue)"/>

  <rect x="1420" y="515" width="105" height="36" rx="6" fill="#E8F0FE" stroke="#0B64DD" stroke-width="1.5"/>
  <text x="1472" y="538" text-anchor="middle" font-size="12" fill="#0B64DD" font-weight="700">Triage</text>
  <line x1="1525" y1="533" x2="1548" y2="533" stroke="#0B64DD" stroke-width="2" marker-end="url(#arrow-blue)"/>

  <rect x="1550" y="515" width="105" height="36" rx="6" fill="#E8F0FE" stroke="#0B64DD" stroke-width="1.5"/>
  <text x="1602" y="538" text-anchor="middle" font-size="12" fill="#0B64DD" font-weight="700">Review</text>
  <line x1="1655" y1="533" x2="1678" y2="533" stroke="#0B64DD" stroke-width="2" marker-end="url(#arrow-blue)"/>

  <rect x="1680" y="515" width="105" height="36" rx="6" fill="#0B64DD"/>
  <text x="1732" y="538" text-anchor="middle" font-size="12" fill="#FFFFFF" font-weight="700">Recovery</text>

  <!-- Automated Actions -->
  <text x="1290" y="580" font-size="14" fill="#153385" font-weight="700">Automated Actions</text>

  <rect x="1290" y="592" width="160" height="40" rx="6" fill="#FEF3C7" stroke="#F59E0B" stroke-width="1"/>
  <text x="1370" y="612" text-anchor="middle" font-size="12" fill="#92400E" font-weight="600">Flag Providers</text>
  <text x="1370" y="626" text-anchor="middle" font-size="10" fill="#92400E">&amp; Claims</text>

  <rect x="1465" y="592" width="160" height="40" rx="6" fill="#DBEAFE" stroke="#3B82F6" stroke-width="1"/>
  <text x="1545" y="612" text-anchor="middle" font-size="12" fill="#1E40AF" font-weight="600">Generate &amp; Send</text>
  <text x="1545" y="626" text-anchor="middle" font-size="10" fill="#1E40AF">Reports</text>

  <rect x="1640" y="592" width="160" height="40" rx="6" fill="#D1FAE5" stroke="#10B981" stroke-width="1"/>
  <text x="1720" y="612" text-anchor="middle" font-size="12" fill="#065F46" font-weight="600">Send Letters</text>
  <text x="1720" y="626" text-anchor="middle" font-size="10" fill="#065F46">&amp; Notices</text>

  <rect x="1290" y="642" width="160" height="40" rx="6" fill="#FCE7F3" stroke="#EC4899" stroke-width="1"/>
  <text x="1370" y="662" text-anchor="middle" font-size="12" fill="#9D174D" font-weight="600">Assign Cases</text>
  <text x="1370" y="676" text-anchor="middle" font-size="10" fill="#9D174D">to Investigators</text>

  <rect x="1465" y="642" width="160" height="40" rx="6" fill="#EDE9FE" stroke="#8B5CF6" stroke-width="1"/>
  <text x="1545" y="662" text-anchor="middle" font-size="12" fill="#5B21B6" font-weight="600">Route Recovery</text>
  <text x="1545" y="676" text-anchor="middle" font-size="10" fill="#5B21B6">Invoices to Optum</text>

  <rect x="1640" y="642" width="160" height="40" rx="6" fill="#FEE2E2" stroke="#EF4444" stroke-width="1"/>
  <text x="1720" y="662" text-anchor="middle" font-size="12" fill="#991B1B" font-weight="600">Refer to Fraud</text>
  <text x="1720" y="676" text-anchor="middle" font-size="10" fill="#991B1B">Investigations</text>

  <!-- Arrow: ES -> Workflows -->
  <line x1="1180" y1="530" x2="1258" y2="530" stroke="#153385" stroke-width="3" marker-end="url(#arrow-darkblue)"/>

  <!-- Arrow labels -->
  <rect x="1195" y="354" width="50" height="17" rx="4" fill="#0B64DD"/>
  <text x="1220" y="366" text-anchor="middle" font-size="8" fill="#FFFFFF" font-weight="700">QUERY</text>

  <rect x="1195" y="534" width="55" height="17" rx="4" fill="#153385"/>
  <text x="1222" y="546" text-anchor="middle" font-size="8" fill="#FFFFFF" font-weight="700">TRIGGER</text>

  <!-- ======================================== -->
  <!-- BOTTOM: IDE / PYTHON (from ES center)   -->
  <!-- ======================================== -->
  <!-- Arrow down from ES -->
  <line x1="990" y1="720" x2="990" y2="810" stroke="#153385" stroke-width="3" marker-end="url(#arrow-darkblue)"/>
  <!-- Bidirectional arrow up -->
  <line x1="975" y1="810" x2="975" y2="725" stroke="#153385" stroke-width="2" marker-end="url(#arrow-darkblue)"/>
  <rect x="1000" y="755" width="70" height="17" rx="4" fill="#153385"/>
  <text x="1035" y="767" text-anchor="middle" font-size="8" fill="#FFFFFF" font-weight="700">READ / WRITE</text>

  <!-- IDE Box -->
  <rect x="730" y="815" width="520" height="155" rx="10" fill="#FFFFFF" stroke="#153385" stroke-width="2.5" filter="url(#shadow)"/>
  <rect x="730" y="815" width="520" height="45" rx="10" ry="10" fill="#153385"/>
  <rect x="730" y="845" width="520" height="15" fill="#153385"/>
  <text x="990" y="843" text-anchor="middle" font-size="18" font-weight="700" fill="#FFFFFF">Ad Hoc Python Scripting &amp; IDE Access</text>

  <!-- IDE cards -->
  <rect x="755" y="875" width="150" height="80" rx="6" fill="#FFFFFF" stroke="#153385" stroke-width="1"/>
  <rect x="755" y="875" width="150" height="25" rx="6" ry="0" fill="#153385" opacity="0.1"/>
  <text x="830" y="892" text-anchor="middle" font-size="11" fill="#153385" font-weight="700">Visual Studio Code</text>
  <text x="770" y="915" font-size="10" fill="#333">Python scripts</text>
  <text x="770" y="930" font-size="10" fill="#333">Red flag detection</text>
  <text x="770" y="945" font-size="10" fill="#333">Data mining algorithms</text>

  <rect x="920" y="875" width="150" height="80" rx="6" fill="#FFFFFF" stroke="#153385" stroke-width="1"/>
  <rect x="920" y="875" width="150" height="25" rx="6" ry="0" fill="#153385" opacity="0.1"/>
  <text x="995" y="892" text-anchor="middle" font-size="11" fill="#153385" font-weight="700">Jupyter Notebooks</text>
  <text x="935" y="915" font-size="10" fill="#333">Exploratory analysis</text>
  <text x="935" y="930" font-size="10" fill="#333">ML model development</text>
  <text x="935" y="945" font-size="10" fill="#333">Ad hoc queries</text>

  <rect x="1085" y="875" width="150" height="80" rx="6" fill="#FFFFFF" stroke="#0B64DD" stroke-width="1.5"/>
  <rect x="1085" y="875" width="150" height="25" rx="6" ry="0" fill="#0B64DD" opacity="0.1"/>
  <text x="1160" y="892" text-anchor="middle" font-size="11" fill="#0B64DD" font-weight="700">elasticsearch-py</text>
  <text x="1100" y="915" font-size="10" fill="#333">Python client library</text>
  <text x="1100" y="930" font-size="10" fill="#333">ES|QL &amp; REST API</text>
  <text x="1100" y="945" font-size="10" fill="#333">Bulk data operations</text>

  <!-- ======================================== -->
  <!-- BOTTOM BAR                              -->
  <!-- ======================================== -->
  <rect x="0" y="1055" width="1920" height="25" fill="#0B64DD"/>
  <text x="960" y="1072" text-anchor="middle" font-size="11" fill="#FFFFFF" font-weight="600" letter-spacing="3">ELASTIC  |  SEARCH  |  OBSERVE  |  PROTECT</text>

</svg>